PathFileType	4	(X/Y/Z)	SUBJ82_4_walk_RCNL2025.trc
DataRate	CameraRate	NumFrames	NumMarkers	Units	OrigDataRate	OrigDataStartFrame	OrigNumFrames
100	100	7	25	mm	100	182	242
Frame#	Time	R_Shoulder			L_Shoulder			C7			J_Notch			R_Elbow			L_Elbow			R_Wrist			L_Wrist			R_Asis			L_Asis			Sacral			Thoracic			Sternum			R_Thigh_Lateral			R_Knee_Lateral			R_Shank_Lateral			R_Ankle_Lateral			R_Heel			R_Toe			L_Thigh_Lateral			L_Knee_Lateral			L_Shank_Lateral			L_Ankle_Lateral			L_Heel			L_Toe		
		X1	Y1	Z1	X2	Y2	Z2	X3	Y3	Z3	X4	Y4	Z4	X5	Y5	Z5	X6	Y6	Z6	X7	Y7	Z7	X8	Y8	Z8	X9	Y9	Z9	X10	Y10	Z10	X11	Y11	Z11	X12	Y12	Z12	X13	Y13	Z13	X14	Y14	Z14	X15	Y15	Z15	X16	Y16	Z16	X17	Y17	Z17	X18	Y18	Z18	X19	Y19	Z19	X20	Y20	Z20	X21	Y21	Z21	X22	Y22	Z22	X23	Y23	Z23	X24	Y24	Z24	X25	Y25	Z25
182	1.81000000	1442.862671	1366.242920	-52.252087	1507.932495	1393.580566	-456.122681	1419.803711	1473.996582	-253.445953	1544.991333	1359.321411	-244.760468	1334.759399	1036.431885	-12.190309	1475.336426	1050.717407	-554.469910	1381.901184	781.139160	-21.847497	1669.216492	878.055664	-526.035400	1534.188232	959.956787	-120.497902	1545.578735	948.794067	-387.508484	1357.246826	964.677246	-264.421906	1328.914795	1239.885742	-285.955719	1573.780396	1184.682983	-248.585052	1617.403564	551.712463	-71.985168	1643.335449	471.751465	-121.691002	1655.075073	246.902084	-70.246582	1667.113525	66.993439	-167.753983	1625.739258	37.230270	-212.729446	1804.691650	44.066975	-192.903854	1361.677246	527.813599	-445.300995	1342.182251	459.108368	-404.916992	1177.001587	303.521576	-440.336609	1028.705811	189.799377	-376.125641	991.715454	213.429886	-323.164062	1079.043213	58.798035	-335.990875
183	1.82000000	1458.851807	1369.007935	-51.768177	1524.552979	1396.153687	-455.413208	1435.837158	1476.682373	-252.938934	1560.972046	1361.984253	-244.050858	1354.473267	1038.232544	-10.405567	1486.353516	1053.061279	-551.904785	1404.188965	783.014313	-19.259692	1675.936707	875.371796	-524.044464	1549.138916	963.211121	-118.473083	1561.972412	950.487671	-385.408417	1372.881226	966.870300	-264.607330	1345.048706	1242.468384	-286.026825	1589.709473	1187.350464	-247.666443	1628.393188	552.814758	-70.744263	1652.876831	472.267761	-120.639069	1661.220459	246.899948	-69.277573	1667.831665	67.233376	-167.963577	1625.806641	37.678703	-212.510422	1804.922363	43.486080	-193.491165	1390.112793	525.490295	-444.867004	1371.441772	457.195221	-404.704712	1202.440186	308.316467	-440.149231	1050.180176	199.837250	-376.502045	1014.516602	224.567337	-323.036957	1093.883911	65.099823	-337.984833
184	1.83000000	1474.841553	1372.110962	-51.431133	1540.861694	1398.957764	-454.869232	1451.697266	1479.635010	-252.601395	1576.758423	1364.851807	-243.593216	1374.157349	1040.406494	-8.583650	1497.276245	1055.657837	-549.354309	1426.535706	785.285004	-16.812630	1682.047913	872.613464	-522.071899	1563.893921	966.433838	-116.567642	1577.961670	952.596497	-383.482513	1388.229980	969.300903	-264.590881	1360.918213	1245.343628	-285.972198	1605.323853	1190.160889	-247.041275	1637.670776	553.610352	-69.722862	1660.800659	472.498199	-119.721436	1665.611206	246.723999	-68.557060	1668.261108	67.421532	-168.153015	1625.777466	38.019878	-212.396210	1804.954834	43.251984	-193.928345	1418.580811	523.780701	-444.152130	1401.181274	455.914520	-404.353516	1229.172974	313.127502	-439.758881	1073.539062	209.184891	-376.578156	1038.992065	234.472351	-322.519867	1112.169434	71.719666	-340.253021
185	1.84000000	1490.827515	1375.507446	-51.214890	1556.755737	1401.933472	-454.510040	1467.366699	1482.822144	-252.406662	1592.335815	1367.928345	-243.376801	1393.797485	1042.914062	-6.700670	1508.147827	1058.423584	-546.859924	1448.978699	787.961243	-14.485512	1687.620483	869.810272	-520.128723	1578.474365	969.575684	-114.811188	1593.615967	955.110168	-381.738892	1403.338989	972.000549	-264.374298	1376.543823	1248.460205	-285.750977	1620.660156	1193.130127	-246.679962	1645.579590	554.211182	-68.890198	1667.397705	472.567688	-118.934998	1668.619995	246.489548	-68.024368	1668.464844	67.564217	-168.303696	1625.682373	38.278839	-212.367096	1804.866943	43.222675	-194.229645	1446.698730	522.868896	-443.086212	1431.107544	455.506378	-403.826111	1256.974365	317.915741	-439.175110	1098.704346	217.525742	-376.352997	1065.002930	242.867508	-321.645416	1133.916016	78.225395	-342.572205
186	1.85000000	1506.793091	1379.163818	-51.091385	1572.162354	1405.030273	-454.347626	1482.832275	1486.204834	-252.331039	1607.703003	1371.214355	-243.375000	1413.394897	1045.721802	-4.739280	1519.001709	1061.288452	-544.455933	1471.627380	791.086884	-12.209158	1692.720764	866.999146	-518.230545	1592.890381	972.607788	-113.212791	1609.003174	958.006165	-380.165100	1418.258667	975.002258	-263.999756	1391.952637	1251.760986	-285.340118	1635.763916	1196.272827	-246.528961	1652.516357	554.720154	-68.210136	1672.989014	472.588348	-118.276894	1670.632935	246.280823	-67.620842	1668.498047	67.671730	-168.407242	1625.542847	38.468174	-212.379379	1804.718018	43.297005	-194.412842	1474.208618	522.850891	-441.648071	1460.986938	456.113068	-403.102478	1285.642700	322.612488	-438.425507	1125.575317	224.581131	-375.848480	1092.400757	249.562088	-320.484741	1158.969116	84.208397	-344.706146
187	1.86000000	1522.715698	1383.052368	-51.032410	1587.047852	1408.202393	-454.379547	1498.089478	1489.735718	-252.352661	1622.871338	1374.695435	-243.549683	1432.958740	1048.801514	-2.690142	1529.862427	1064.199951	-542.167480	1494.603149	794.708344	-9.905768	1697.408264	864.222992	-516.396515	1607.147583	975.519714	-111.759323	1624.185913	961.246338	-378.730774	1433.038330	978.319153	-263.536987	1407.174438	1255.181885	-284.732697	1650.681396	1199.588867	-246.518799	1658.814697	555.221863	-67.653755	1677.857666	472.643951	-117.744110	1671.969482	246.140945	-67.308350	1668.413330	67.754066	-168.463058	1625.376343	38.600685	-212.381668	1804.551880	43.408489	-194.499832	1501.001953	523.727905	-439.874481	1490.658813	457.753235	-402.190247	1315.014038	327.101227	-437.550446	1154.014526	230.131607	-375.093414	1121.031860	254.440735	-319.114838	1187.069580	89.337692	-346.461945
188	1.87000000	1538.574097	1387.144165	-51.011063	1601.420044	1411.404053	-454.583649	1513.143311	1493.358643	-252.450165	1637.861694	1378.336914	-243.855972	1452.493530	1052.125854	-0.551641	1540.744873	1067.121948	-540.009521	1517.959290	798.833008	-7.538179	1701.734863	861.527893	-514.646408	1621.253540	978.314087	-110.421059	1639.222290	964.776001	-377.395355	1447.721924	981.930664	-263.067444	1422.239136	1258.653320	-283.935638	1665.453979	1203.057129	-246.574921	1664.683838	555.773621	-67.207169	1682.205811	472.781616	-117.333305	1672.871338	246.085556	-67.069382	1668.260010	67.820312	-168.476776	1625.199829	38.696072	-212.336517	1804.398071	43.516914	-194.515701	1527.108643	525.419678	-437.856995	1520.029053	460.332336	-401.125488	1344.955811	331.227631	-436.589722	1183.854004	234.030624	-374.112335	1150.745972	257.444092	-317.596161	1217.918091	93.385948	-347.720398
